<svg width="174" height="81" viewBox="0 0 174 81" fill="none" xmlns="http://www.w3.org/2000/svg">
<g filter="url(#filter0_d)">
<path d="M96.384 16.84C96.512 16.968 96.576 17.16 96.576 17.416C96.576 17.608 96.416 17.896 96.096 18.28C93.984 20.584 92.096 23.24 90.432 26.248C88.768 29.192 87.328 32.424 86.112 35.944C84.96 39.464 84.064 43.176 83.424 47.08C82.784 50.984 82.464 54.984 82.464 59.08C82.464 62.152 82.848 64.552 83.616 66.28C84.384 67.944 85.696 68.776 87.552 68.776C90.048 68.776 92.48 66.984 94.848 63.4C95.04 63.272 95.232 63.272 95.424 63.4C95.616 63.528 95.648 63.72 95.52 63.976C94.88 65.064 94.112 66.152 93.216 67.24C92.384 68.264 91.488 69.224 90.528 70.12C89.568 70.952 88.608 71.656 87.648 72.232C86.752 72.744 85.92 73 85.152 73C83.04 73 81.408 71.944 80.256 69.832C79.168 67.656 78.624 64.904 78.624 61.576C78.624 56.456 79.2 51.24 80.352 45.928C77.344 45.928 74.368 45.96 71.424 46.024C68.544 46.088 65.696 46.184 62.88 46.312C60.768 48.552 58.72 50.664 56.736 52.648C54.816 54.632 52.928 56.456 51.072 58.12C45.952 62.792 40.672 66.44 35.232 69.064C29.856 71.688 23.936 73 17.472 73C14.208 73 11.552 72.232 9.504 70.696C7.52 69.096 6.144 67.112 5.376 64.744C4.672 62.376 4.608 59.784 5.184 56.968C5.824 54.088 7.2 51.4 9.312 48.904C9.504 48.776 9.728 48.808 9.984 49C10.24 49.128 10.336 49.416 10.272 49.864C8.736 51.528 7.808 53.448 7.488 55.624C7.232 57.8 7.584 59.88 8.544 61.864C9.504 63.848 11.136 65.512 13.44 66.856C15.744 68.2 18.752 68.872 22.464 68.872C27.328 68.872 32.224 67.72 37.152 65.416C42.144 63.112 46.848 59.88 51.264 55.72C52.672 54.44 54.112 53.032 55.584 51.496C57.12 49.896 58.72 48.2 60.384 46.408C55.968 46.728 52 47.112 48.48 47.56C48.16 47.496 48.096 47.336 48.288 47.08C48.48 46.824 48.768 46.568 49.152 46.312C49.6 45.992 50.08 45.736 50.592 45.544C51.168 45.288 51.712 45.128 52.224 45.064C52.992 45 54.24 44.968 55.968 44.968C57.76 44.904 59.776 44.84 62.016 44.776C65.664 40.936 69.728 36.808 74.208 32.392C78.752 27.976 84 23.432 89.952 18.76C85.664 17.352 81.216 16.2 76.608 15.304C72.064 14.344 67.68 13.864 63.456 13.864C58.656 13.864 54.656 15.272 51.456 18.088C48.32 20.84 46.368 25.064 45.6 30.76C45.472 31.08 45.28 31.208 45.024 31.144C44.832 31.08 44.704 30.888 44.64 30.568C45.408 24.296 47.744 19.496 51.648 16.168C55.552 12.84 60.608 11.176 66.816 11.176C69.44 11.176 72.096 11.368 74.784 11.752C77.472 12.072 80.096 12.52 82.656 13.096C85.216 13.608 87.648 14.216 89.952 14.92C92.32 15.56 94.464 16.2 96.384 16.84ZM80.64 44.68C81.728 40.008 83.232 35.464 85.152 31.048C87.072 26.568 89.376 22.504 92.064 18.856C86.432 23.4 81.376 27.88 76.896 32.296C72.416 36.648 68.256 40.808 64.416 44.776C67.488 44.712 70.528 44.68 73.536 44.68C76.544 44.68 78.912 44.68 80.64 44.68ZM138.057 1.672C139.721 1.672 140.777 2.44 141.225 3.976C141.737 5.512 141.545 7.144 140.649 8.872C140.521 9 140.361 9 140.169 8.872C139.977 8.744 139.849 8.584 139.785 8.392C139.913 7.62399 139.625 6.984 138.921 6.472C138.281 5.96 137.257 5.704 135.849 5.704C133.097 5.704 130.377 6.856 127.689 9.16C125.001 11.464 122.409 14.472 119.913 18.184C117.417 21.832 115.081 25.928 112.905 30.472C110.793 35.016 108.937 39.56 107.337 44.104C105.801 48.584 104.585 52.84 103.689 56.872C102.793 60.84 102.345 64.072 102.345 66.568C102.345 68.488 102.889 69.448 103.977 69.448C104.745 69.448 105.481 69.128 106.185 68.488C106.953 67.848 107.817 66.888 108.777 65.608C108.969 65.48 109.129 65.512 109.257 65.704C109.449 65.832 109.513 66.024 109.449 66.28C108.169 68.264 106.761 69.896 105.225 71.176C103.689 72.392 102.377 73 101.289 73C100.457 73 99.785 72.68 99.273 72.04C98.761 71.336 98.505 70.408 98.505 69.256C98.505 67.464 98.825 65.16 99.465 62.344C100.105 59.464 101.001 56.264 102.153 52.744C103.305 49.224 104.681 45.544 106.281 41.704C107.945 37.8 109.737 33.96 111.657 30.184C113.577 26.408 115.593 22.792 117.705 19.336C119.881 15.88 122.089 12.84 124.329 10.216C126.633 7.592 128.937 5.512 131.241 3.976C133.545 2.44 135.817 1.672 138.057 1.672ZM166.261 0.423996C167.925 0.423996 168.981 1.064 169.429 2.34399C169.877 3.624 169.653 5.224 168.757 7.144C168.245 7.528 167.925 7.432 167.797 6.856C167.925 5.96 167.669 5.256 167.029 4.744C166.389 4.232 165.493 3.976 164.341 3.976C162.037 3.976 159.701 4.776 157.333 6.376C154.965 7.976 152.661 10.216 150.421 13.096C148.181 15.912 146.005 19.24 143.893 23.08C141.781 26.92 139.829 31.08 138.037 35.56C136.245 40.04 134.613 44.744 133.141 49.672C131.733 54.536 130.581 59.432 129.685 64.36C129.429 65.832 129.365 67.144 129.493 68.296C129.621 69.384 130.069 69.928 130.837 69.928C131.541 69.928 132.245 69.576 132.949 68.872C133.653 68.104 134.293 67.272 134.869 66.376C134.997 66.248 135.157 66.248 135.349 66.376C135.605 66.504 135.701 66.696 135.637 66.952C135.317 67.528 134.869 68.168 134.293 68.872C133.717 69.576 133.077 70.248 132.373 70.888C131.733 71.464 131.061 71.976 130.357 72.424C129.653 72.808 129.013 73 128.437 73C127.349 73 126.581 72.552 126.133 71.656C125.749 70.696 125.621 69.48 125.749 68.008C125.813 66.92 125.941 65.896 126.133 64.936C126.325 63.976 126.549 62.952 126.805 61.864C126.229 63.208 125.461 64.52 124.501 65.8C123.541 67.016 122.549 68.136 121.525 69.16C120.501 70.184 119.477 71.048 118.453 71.752C117.493 72.392 116.661 72.808 115.957 73C114.869 73 113.813 72.552 112.789 71.656C111.829 70.696 111.349 69.192 111.349 67.144C111.349 64.712 111.765 62.376 112.597 60.136C113.429 57.832 114.549 55.816 115.957 54.088C117.429 52.36 119.093 50.984 120.949 49.96C122.869 48.872 124.917 48.328 127.093 48.328C127.797 48.328 128.405 48.424 128.917 48.616C129.493 48.808 130.005 49.064 130.453 49.384C131.605 45.928 132.981 42.312 134.581 38.536C136.245 34.76 138.037 31.08 139.957 27.496C141.877 23.848 143.893 20.392 146.005 17.128C148.181 13.864 150.389 11.016 152.629 8.584C154.933 6.088 157.237 4.104 159.541 2.632C161.845 1.16 164.085 0.423996 166.261 0.423996ZM117.685 69.64C118.389 69.64 119.221 69.256 120.181 68.488C121.205 67.656 122.197 66.6 123.157 65.32C124.181 64.04 125.141 62.568 126.037 60.904C126.997 59.176 127.797 57.416 128.437 55.624C128.629 54.984 128.821 54.376 129.013 53.8C129.205 53.224 129.365 52.648 129.493 52.072C129.237 51.304 128.757 50.76 128.053 50.44C127.349 50.056 126.549 49.864 125.653 49.864C124.309 49.864 122.997 50.28 121.717 51.112C120.437 51.88 119.285 52.968 118.261 54.376C117.301 55.784 116.501 57.448 115.861 59.368C115.285 61.288 114.997 63.4 114.997 65.704C114.997 67.048 115.253 68.04 115.765 68.68C116.341 69.32 116.981 69.64 117.685 69.64ZM147.46 51.112C147.46 52.072 147.364 53.192 147.172 54.472C146.98 55.752 146.724 57.032 146.404 58.312C147.684 55.24 149.092 52.84 150.628 51.112C152.164 49.32 153.828 48.424 155.62 48.424C156.324 48.424 156.964 48.616 157.54 49C158.116 49.384 158.404 49.928 158.404 50.632C158.404 51.144 158.212 51.816 157.828 52.648C157.444 53.416 157.06 53.992 156.676 54.376C156.292 54.632 156.1 54.536 156.1 54.088C156.1 53 155.364 52.456 153.892 52.456C151.652 52.456 149.636 54.152 147.844 57.544C146.052 60.872 144.356 65.512 142.756 71.464C142.628 72.104 142.18 72.52 141.412 72.712C140.708 72.904 140.1 73 139.588 73C138.884 73 138.724 72.648 139.108 71.944C139.684 70.6 140.228 69.16 140.74 67.624C141.252 66.024 141.732 64.424 142.18 62.824C142.692 61.224 143.108 59.656 143.428 58.12C143.748 56.584 144.004 55.176 144.196 53.896C144.452 51.976 144.132 51.016 143.236 51.016C142.724 51.016 142.116 51.304 141.412 51.88C140.772 52.456 140.164 53.128 139.588 53.896C139.332 54.024 139.108 54.024 138.916 53.896C138.724 53.704 138.692 53.48 138.82 53.224C139.78 52.008 140.836 50.92 141.988 49.96C143.204 48.936 144.324 48.424 145.348 48.424C146.756 48.424 147.46 49.32 147.46 51.112Z" fill="white"/>
</g>
<defs>
<filter id="filter0_d" x="0.795197" y="0.423996" width="172.858" height="80.576" filterUnits="userSpaceOnUse" color-interpolation-filters="sRGB">
<feFlood flood-opacity="0" result="BackgroundImageFix"/>
<feColorMatrix in="SourceAlpha" type="matrix" values="0 0 0 0 0 0 0 0 0 0 0 0 0 0 0 0 0 0 127 0"/>
<feOffset dy="4"/>
<feGaussianBlur stdDeviation="2"/>
<feColorMatrix type="matrix" values="0 0 0 0 0 0 0 0 0 0 0 0 0 0 0 0 0 0 0.25 0"/>
<feBlend mode="normal" in2="BackgroundImageFix" result="effect1_dropShadow"/>
<feBlend mode="normal" in="SourceGraphic" in2="effect1_dropShadow" result="shape"/>
</filter>
</defs>
</svg>
